<svg width="21" height="21" viewBox="0 0 21 21" fill="none" xmlns="http://www.w3.org/2000/svg">
<g clip-path="url(#clip0_1_483)">
<path d="M15.2396 2.89824L6.07292 4.14824C5.23958 4.23287 4.66667 4.98157 4.66667 5.81491V14.3826C4.28255 14.3143 3.86589 14.3143 3.41667 14.4087C1.83464 14.8253 0.5 16.2218 0.5 17.6378C0.5 19.0538 1.83464 19.9034 3.41667 19.4868C4.9987 19.0701 6.33333 17.6476 6.33333 16.2316V9.07011L15.5 7.84616V13.4972C15.1159 13.4288 14.6992 13.4581 14.25 13.5753C12.668 13.992 11.3333 15.3885 11.3333 16.8045C11.3333 18.2205 12.668 19.0701 14.25 18.6534C15.832 18.2368 17.1667 16.8143 17.1667 15.3982V4.56491C17.1667 3.56556 16.2389 2.8136 15.2396 2.89824Z" fill="white"/>
</g>
<defs>
<clipPath id="clip0_1_483">
<rect width="20" height="20" fill="white" transform="translate(0.5 0.891739)"/>
</clipPath>
</defs>
</svg>
