<svg width="10" height="17" viewBox="0 0 10 17" fill="none" xmlns="http://www.w3.org/2000/svg">
<path d="M9.77246 15.5358C9.43021 15.8434 9.03585 16.0744 8.53527 16.2287C8.03468 16.4079 7.50853 16.4855 6.95582 16.4855C5.77173 16.4855 4.85022 16.152 4.19229 15.5109C3.53435 14.8698 3.21866 13.9977 3.21866 12.8429V4.09619H0.692139V2.99315H3.21866V0.0692749H4.53453V2.99315H8.90406V4.09619H4.53453V12.7145C4.53453 13.5866 4.74499 14.2536 5.19247 14.6896C5.61339 15.1515 6.24478 15.3825 7.0876 15.3825C7.93043 15.3825 8.66705 15.1257 9.21975 14.6388L9.77246 15.5368V15.5358Z" fill="url(#paint0_linear_1_428)"/>
<defs>
<linearGradient id="paint0_linear_1_428" x1="0.691155" y1="8.2774" x2="9.77246" y2="8.2774" gradientUnits="userSpaceOnUse">
<stop stop-color="#CCE0F4"/>
<stop offset="0.05" stop-color="#C2DCF2"/>
<stop offset="0.14" stop-color="#A9D2EE"/>
<stop offset="0.25" stop-color="#7FC2E7"/>
<stop offset="0.37" stop-color="#46ABDD"/>
<stop offset="0.46" stop-color="#1E9CD7"/>
<stop offset="0.77" stop-color="#0379C1"/>
<stop offset="0.87" stop-color="#0075BE"/>
<stop offset="0.99" stop-color="#005B97"/>
</linearGradient>
</defs>
</svg>
