<svg width="15" height="20" viewBox="0 0 15 20" fill="none" xmlns="http://www.w3.org/2000/svg">
<path d="M14.5151 0.993167V12.9455C14.5151 15.1775 13.9624 16.8191 12.8569 17.8704C11.7515 18.9217 10.0934 19.4602 7.85604 19.4602C6.59229 19.4602 5.40819 19.281 4.27623 18.8958C3.14426 18.5115 2.24931 17.9978 1.56482 17.3308L2.27586 16.3562C2.96036 16.9715 3.77663 17.4592 4.75026 17.7927C5.72389 18.1262 6.75062 18.3055 7.82948 18.3055C9.64594 18.3055 11.0149 17.8694 11.8833 17.0232C12.7517 16.177 13.1992 14.8689 13.1992 13.0988V10.842C12.6465 11.8166 11.8568 12.5602 10.8566 13.0988C9.8564 13.6374 8.72444 13.8942 7.48724 13.8942C6.25004 13.8942 5.0394 13.6125 4.01266 13.048C2.95937 12.5095 2.14408 11.7399 1.53827 10.7394C0.932453 9.73892 0.643311 8.63587 0.643311 7.3795C0.643311 6.12312 0.932453 5.02008 1.53827 4.01958C2.14408 3.01908 2.95937 2.24954 4.01266 1.71096C5.0394 1.17237 6.19693 0.890625 7.48724 0.890625C8.77754 0.890625 9.88295 1.17333 10.9087 1.71096C11.9354 2.24954 12.6986 3.01908 13.2513 4.01958V0.993167H14.5151V0.993167ZM10.4878 12.0485C11.3562 11.6125 12.0141 10.9713 12.5147 10.151C12.9887 9.35558 13.2257 8.43271 13.2257 7.38046C13.2257 6.32821 12.9887 5.40533 12.5147 4.60992C12.0141 3.8145 11.3562 3.17338 10.4878 2.71242C9.61939 2.27638 8.67133 2.04542 7.59247 2.04542C6.51361 2.04542 5.56555 2.27638 4.72371 2.71242C3.85531 3.17433 3.19639 3.81546 2.72334 4.60992C2.22276 5.40533 1.98673 6.32821 1.98673 7.38046C1.98673 8.43271 2.22374 9.35558 2.72334 10.151C3.19737 10.9713 3.85531 11.6125 4.72371 12.0485C5.56555 12.5104 6.51361 12.7414 7.59247 12.7414C8.67133 12.7414 9.61939 12.5104 10.4878 12.0485Z" fill="url(#paint0_linear_1_12)"/>
<defs>
<linearGradient id="paint0_linear_1_12" x1="0.643311" y1="10.1759" x2="14.5151" y2="10.1759" gradientUnits="userSpaceOnUse">
<stop stop-color="#CCE0F4"/>
<stop offset="0.05" stop-color="#C2DCF2"/>
<stop offset="0.14" stop-color="#A9D2EE"/>
<stop offset="0.25" stop-color="#7FC2E7"/>
<stop offset="0.37" stop-color="#46ABDD"/>
<stop offset="0.46" stop-color="#1E9CD7"/>
<stop offset="0.77" stop-color="#0379C1"/>
<stop offset="0.87" stop-color="#0075BE"/>
<stop offset="0.99" stop-color="#005B97"/>
</linearGradient>
</defs>
</svg>
