<svg width="49" height="66" viewBox="0 0 49 66" fill="none" xmlns="http://www.w3.org/2000/svg">
<path d="M48.4951 0.842966V42.9035C48.4951 50.7578 46.6026 56.5347 42.8175 60.2342C39.0325 63.9337 33.3549 65.829 25.6938 65.829C21.3666 65.829 17.3121 65.1984 13.4361 63.8427C9.56013 62.4904 6.49572 60.6827 4.15194 58.3356L6.58664 54.9058C8.93042 57.0709 11.7254 58.7875 15.0592 59.9611C18.3931 61.1347 21.9087 61.7653 25.6029 61.7653C31.8226 61.7653 36.5102 60.2308 39.4837 57.253C42.4572 54.2752 43.9894 49.6719 43.9894 43.4431V35.5011C42.0969 38.9308 39.3928 41.5478 35.968 43.4431C32.5433 45.3383 28.6673 46.2422 24.431 46.2422C20.1947 46.2422 16.0493 45.2507 12.5336 43.2643C8.92704 41.369 6.13539 38.661 4.06102 35.1402C1.98664 31.6194 0.996582 27.7378 0.996582 23.3166C0.996582 18.8954 1.98664 15.0138 4.06102 11.493C6.13539 7.97221 8.92704 5.26417 12.5336 3.36889C16.0493 1.4736 20.0128 0.482117 24.431 0.482117C28.8492 0.482117 32.6342 1.47697 36.1465 3.36889C39.6622 5.26417 42.2754 7.97221 44.1679 11.493V0.842966H48.4951V0.842966ZM34.7052 39.7469C37.6787 38.2125 39.9316 35.9563 41.6456 33.0696C43.2688 30.2705 44.0803 27.0229 44.0803 23.32C44.0803 19.6171 43.2688 16.3695 41.6456 13.5704C39.9316 10.7713 37.6787 8.51517 34.7052 6.89304C31.7317 5.3586 28.4855 4.54585 24.7913 4.54585C21.0972 4.54585 17.8509 5.3586 14.9683 6.89304C11.9948 8.51854 9.73861 10.7747 8.11884 13.5704C6.40479 16.3695 5.59659 19.6171 5.59659 23.32C5.59659 27.0229 6.40816 30.2705 8.11884 33.0696C9.74198 35.9563 11.9948 38.2125 14.9683 39.7469C17.8509 41.3724 21.0972 42.1852 24.7913 42.1852C28.4855 42.1852 31.7317 41.3724 34.7052 39.7469Z" fill="url(#paint0_linear_1_248)"/>
<defs>
<linearGradient id="paint0_linear_1_248" x1="0.996582" y1="33.1573" x2="48.4951" y2="33.1573" gradientUnits="userSpaceOnUse">
<stop stop-color="#CCE0F4"/>
<stop offset="0.05" stop-color="#C2DCF2"/>
<stop offset="0.14" stop-color="#A9D2EE"/>
<stop offset="0.25" stop-color="#7FC2E7"/>
<stop offset="0.37" stop-color="#46ABDD"/>
<stop offset="0.46" stop-color="#1E9CD7"/>
<stop offset="0.77" stop-color="#0379C1"/>
<stop offset="0.87" stop-color="#0075BE"/>
<stop offset="0.99" stop-color="#005B97"/>
</linearGradient>
</defs>
</svg>
