<svg width="27" height="29" viewBox="0 0 27 29" fill="none" xmlns="http://www.w3.org/2000/svg">
<path fill-rule="evenodd" clip-rule="evenodd" d="M20.9013 4.07273V5.83412H23.7442H23.7466V5.83868C24.6445 5.84096 25.4584 6.19643 26.0461 6.77292C26.6292 7.34486 26.993 8.13555 26.9953 9.01055H27V9.01511V25.7107V25.713H26.9953C26.993 26.588 26.6292 27.3833 26.0391 27.9598C25.4537 28.5294 24.6445 28.8849 23.7489 28.8872V28.8917H23.7442H9.3545H9.35216V28.8872C8.4566 28.8849 7.64032 28.5294 7.0526 27.9529C6.46955 27.381 6.10573 26.5903 6.1034 25.7153H6.09873V25.7107V21.9715H3.25577H3.25343V21.9669C2.35786 21.9647 1.54159 21.6092 0.953874 21.0327C0.370822 20.4608 0.00699663 19.6701 0.00466442 18.7951H0V18.7905V4.07273V4.07045H0.00466442C0.00699663 3.19317 0.373154 2.39792 0.960871 1.82371C1.54626 1.25404 2.35553 0.898575 3.2511 0.896296V0.891739H3.25577H17.6455H17.6478V0.896296C18.5457 0.898575 19.3597 1.25404 19.9474 1.83054C20.5304 2.40248 20.8943 3.19317 20.8966 4.06817H20.9013V4.07273V4.07273ZM18.4338 5.83412V4.07273V4.06817H18.4385C18.4385 3.86081 18.3475 3.66941 18.2029 3.52813C18.0606 3.38913 17.8624 3.30027 17.6502 3.30027V3.30482H17.6478H3.2581H3.25343V3.30027C3.0412 3.30027 2.8453 3.38913 2.7007 3.53041C2.55843 3.66941 2.46748 3.86309 2.46748 4.07045H2.47214V4.07273V18.7905V18.7951H2.46748C2.46748 19.0024 2.55843 19.1938 2.70303 19.3351C2.8453 19.4741 3.04353 19.563 3.25577 19.563V19.5584H3.2581H6.10106V9.01511V9.01283H6.10573C6.10806 8.13555 6.47422 7.34031 7.06193 6.76609C7.64732 6.19643 8.4566 5.84096 9.35216 5.83868V5.83412H9.35683H18.4338ZM24.5302 25.7107V9.01511V9.01055H24.5349C24.5349 8.8032 24.4439 8.61179 24.2993 8.47051C24.157 8.33152 23.9588 8.24265 23.7466 8.24265V8.24721H23.7442H9.3545H9.34983V8.24265C9.1376 8.24265 8.9417 8.33152 8.7971 8.47279C8.65483 8.61179 8.56388 8.80548 8.56388 9.01283H8.56854V9.01511V25.7107V25.7153H8.56388C8.56388 25.9227 8.65483 26.1141 8.79943 26.2553C8.9417 26.3943 9.13993 26.4832 9.35216 26.4832V26.4787H9.3545H23.7442H23.7489V26.4832C23.9611 26.4832 24.157 26.3943 24.3016 26.2531C24.4439 26.1141 24.5349 25.9204 24.5349 25.713H24.5302V25.7107V25.7107Z" fill="#005B97"/>
</svg>
