<svg width="46" height="49" viewBox="0 0 46 49" fill="none" xmlns="http://www.w3.org/2000/svg">
<path d="M45.342 25.4851H4.87474C4.96567 29.1846 5.95573 32.4356 7.66978 35.2346C9.38384 38.1214 11.8152 40.3809 14.792 41.9154C17.7655 43.4498 21.0994 44.2626 24.7969 44.2626C27.8613 44.2626 30.7438 43.7196 33.3604 42.546C35.9736 41.4635 38.1389 39.838 39.8496 37.6729L42.4627 40.6507C40.3917 43.089 37.8661 44.9842 34.8017 46.3366C31.6463 47.6889 28.3125 48.3229 24.7059 48.3229C20.0184 48.3229 15.873 47.3314 12.1788 45.254C8.4847 43.1766 5.68968 40.3809 3.6153 36.7691C1.54429 33.1573 0.459961 29.0058 0.459961 24.4025C0.459961 19.7992 1.45001 15.7388 3.43347 12.0359C5.326 8.42748 8.0301 5.62839 11.4548 3.551C14.8796 1.47698 18.7556 0.482117 22.9919 0.482117C27.2282 0.482117 31.1042 1.47697 34.5289 3.45994C37.8628 5.53733 40.5668 8.33305 42.5503 11.9449C44.4428 15.5567 45.4329 19.6171 45.4329 24.2204L45.342 25.4851V25.4851ZM14.068 6.61987C11.4548 8.15431 9.28953 10.2317 7.75732 12.8487C6.13419 15.5567 5.23507 18.6256 4.9623 21.9643H41.0147C40.8329 18.6256 39.9338 15.5567 38.3106 12.9397C36.6875 10.3228 34.5256 8.24537 31.9124 6.71093C29.2992 5.17649 26.3257 4.4548 22.9885 4.4548C19.6513 4.4548 16.6778 5.17649 14.0647 6.61987H14.068Z" fill="url(#paint0_linear_1_249)"/>
<defs>
<linearGradient id="paint0_linear_1_249" x1="0.456593" y1="24.4025" x2="45.4329" y2="24.4025" gradientUnits="userSpaceOnUse">
<stop stop-color="#CCE0F4"/>
<stop offset="0.05" stop-color="#C2DCF2"/>
<stop offset="0.14" stop-color="#A9D2EE"/>
<stop offset="0.25" stop-color="#7FC2E7"/>
<stop offset="0.37" stop-color="#46ABDD"/>
<stop offset="0.46" stop-color="#1E9CD7"/>
<stop offset="0.77" stop-color="#0379C1"/>
<stop offset="0.87" stop-color="#0075BE"/>
<stop offset="0.99" stop-color="#005B97"/>
</linearGradient>
</defs>
</svg>
