<svg width="31" height="33" viewBox="0 0 31 33" fill="none" xmlns="http://www.w3.org/2000/svg">
<path d="M27.4156 0.904178L10.3656 3.29921C8.81562 3.46138 7.75 4.8959 7.75 6.49259V22.9086C7.03555 22.7776 6.26055 22.7776 5.425 22.9585C2.48242 23.7568 0 26.4325 0 29.1456C0 31.8588 2.48242 33.4866 5.425 32.6883C8.36758 31.8899 10.85 29.1643 10.85 26.4512V12.7297L27.9 10.3845V21.2121C27.1855 21.0811 26.4105 21.1372 25.575 21.3618C22.6324 22.1601 20.15 24.8358 20.15 27.5489C20.15 30.2621 22.6324 31.8899 25.575 31.0916C28.5176 30.2932 31 27.5676 31 24.8545V4.09756C31 2.18278 29.2744 0.742015 27.4156 0.904178Z" fill="url(#paint0_linear_1_223)"/>
<defs>
<linearGradient id="paint0_linear_1_223" x1="3.9021" y1="0.891723" x2="26.5147" y2="32.2173" gradientUnits="userSpaceOnUse">
<stop stop-color="#F4E0C2"/>
<stop offset="1" stop-color="#FF9533"/>
</linearGradient>
</defs>
</svg>
