<svg width="14" height="15" viewBox="0 0 14 15" fill="none" xmlns="http://www.w3.org/2000/svg">
<path d="M13.7011 7.99571H1.88283C1.90938 9.047 2.19852 9.97083 2.69911 10.7662C3.19969 11.5866 3.90975 12.2287 4.77913 12.6647C5.64753 13.1007 6.62116 13.3317 7.701 13.3317C8.59595 13.3317 9.43779 13.1774 10.2019 12.8439C10.9651 12.5363 11.5975 12.0744 12.0971 11.4591L12.8603 12.3053C12.2554 12.9982 11.5178 13.5368 10.6229 13.9211C9.70136 14.3054 8.72774 14.4855 7.67445 14.4855C6.30546 14.4855 5.09482 14.2038 4.01596 13.6135C2.9371 13.0231 2.12082 12.2287 1.51501 11.2023C0.910181 10.1759 0.593506 8.99621 0.593506 7.68808C0.593506 6.37996 0.882646 5.22613 1.46191 4.17388C2.01461 3.14846 2.80434 2.35304 3.80452 1.76271C4.8047 1.17333 5.93667 0.890625 7.17387 0.890625C8.41106 0.890625 9.54303 1.17333 10.5432 1.73683C11.5168 2.32717 12.3066 3.12162 12.8858 4.148C13.4385 5.17437 13.7277 6.32821 13.7277 7.63633L13.7011 7.99571V7.99571ZM4.56769 2.63479C3.80452 3.07083 3.17215 3.66116 2.72467 4.40483C2.25064 5.17437 1.98806 6.04646 1.9084 6.99521H12.4374C12.3843 6.04646 12.1217 5.17438 11.6476 4.43071C11.1736 3.68704 10.5422 3.09671 9.77906 2.66067C9.01589 2.22463 8.1475 2.01954 7.17288 2.01954C6.19827 2.01954 5.32987 2.22462 4.5667 2.63479H4.56769Z" fill="url(#paint0_linear_1_543)"/>
<defs>
<linearGradient id="paint0_linear_1_543" x1="0.592522" y1="7.68808" x2="13.7277" y2="7.68808" gradientUnits="userSpaceOnUse">
<stop stop-color="#CCE0F4"/>
<stop offset="0.05" stop-color="#C2DCF2"/>
<stop offset="0.14" stop-color="#A9D2EE"/>
<stop offset="0.25" stop-color="#7FC2E7"/>
<stop offset="0.37" stop-color="#46ABDD"/>
<stop offset="0.46" stop-color="#1E9CD7"/>
<stop offset="0.77" stop-color="#0379C1"/>
<stop offset="0.87" stop-color="#0075BE"/>
<stop offset="0.99" stop-color="#005B97"/>
</linearGradient>
</defs>
</svg>
