<svg width="13" height="15" viewBox="0 0 13 15" fill="none" xmlns="http://www.w3.org/2000/svg">
<path d="M12.3768 0.993164V14.382H11.113V11.509C10.6656 12.4577 9.98107 13.1765 9.08611 13.6892C8.19116 14.2277 7.13885 14.4846 5.92722 14.4846C4.13732 14.4846 2.74179 13.9968 1.71604 13.0222C0.689299 12.0475 0.189697 10.6369 0.189697 8.81604V0.993164H1.50557V8.7135C1.50557 10.2267 1.89994 11.3556 2.68966 12.151C3.47939 12.9465 4.5848 13.3307 6.03246 13.3307C7.58535 13.3307 8.79599 12.8688 9.7175 11.9201C10.6124 10.9713 11.0599 9.714 11.0599 8.12412V0.993164H12.3758H12.3768Z" fill="url(#paint0_linear_1_539)"/>
<defs>
<linearGradient id="paint0_linear_1_539" x1="0.189697" y1="7.73983" x2="12.3768" y2="7.73983" gradientUnits="userSpaceOnUse">
<stop stop-color="#CCE0F4"/>
<stop offset="0.05" stop-color="#C2DCF2"/>
<stop offset="0.14" stop-color="#A9D2EE"/>
<stop offset="0.25" stop-color="#7FC2E7"/>
<stop offset="0.37" stop-color="#46ABDD"/>
<stop offset="0.46" stop-color="#1E9CD7"/>
<stop offset="0.77" stop-color="#0379C1"/>
<stop offset="0.87" stop-color="#0075BE"/>
<stop offset="0.99" stop-color="#005B97"/>
</linearGradient>
</defs>
</svg>
